<?xml version="1.0" standalone="no"?>
<!DOCTYPE svg PUBLIC "-//W3C//DTD SVG 20010904//EN"
 "http://www.w3.org/TR/2001/REC-SVG-20010904/DTD/svg10.dtd">
<svg version="1.0" xmlns="http://www.w3.org/2000/svg"
 width="243.000000pt" height="207.000000pt" viewBox="0 0 243.000000 207.000000"
 preserveAspectRatio="xMidYMid meet">

<g transform="translate(0.000000,207.000000) scale(0.100000,-0.100000)"
fill="#000000" stroke="none">
<path d="M1150 1580 c0 -5 5 -10 10 -10 6 0 10 5 10 10 0 6 -4 10 -10 10 -5 0
-10 -4 -10 -10z"/>
<path d="M1270 1550 c0 -5 -15 -10 -32 -10 -28 -1 -30 -2 -15 -11 9 -6 15 -14
12 -20 -4 -5 -2 -9 3 -9 6 0 12 7 16 15 6 17 46 21 46 5 0 -5 -4 -10 -10 -10
-5 0 -10 -3 -10 -7 0 -5 16 -9 35 -10 l35 -2 -35 35 c-37 36 -45 40 -45 24z"/>
<path d="M1200 1480 c-12 -8 -11 -10 7 -10 12 0 25 5 28 10 8 13 -15 13 -35 0z"/>
<path d="M1296 1481 c-4 -7 -5 -15 -2 -18 9 -9 19 4 14 18 -4 11 -6 11 -12 0z"/>
<path d="M1330 1445 c0 -8 5 -15 10 -15 6 0 10 7 10 15 0 8 -4 15 -10 15 -5 0
-10 -7 -10 -15z"/>
<path d="M1143 1385 c-22 -20 -25 -26 -14 -34 11 -7 9 -11 -8 -21 -13 -6 -29
-9 -36 -6 -9 3 -12 0 -8 -10 3 -9 -2 -14 -15 -14 -12 0 -24 -5 -27 -11 -13
-20 -16 -91 -5 -104 7 -8 9 -19 6 -24 -4 -5 -1 -13 5 -17 8 -4 7 -9 -2 -15
-22 -13 -2 -22 46 -21 39 2 45 0 45 -18 0 -27 16 -32 105 -34 83 -1 89 -14 8
-17 -37 -2 -53 -7 -53 -16 0 -8 -6 -16 -13 -19 -30 -11 -13 -32 25 -31 21 0
38 3 38 6 0 3 23 7 51 8 103 4 170 72 156 158 -9 56 -64 160 -113 213 -47 51
-49 52 -105 52 -47 0 -63 -5 -86 -25z m-27 -156 c2 -47 -1 -59 -11 -55 -17 6
-28 -21 -12 -28 7 -2 2 -5 -10 -5 -16 -1 -20 3 -16 19 3 11 0 20 -6 20 -19 0
-12 34 13 69 14 19 22 40 19 49 -5 14 -3 15 8 4 8 -7 14 -37 15 -73z"/>
<path d="M1155 1020 c3 -5 8 -10 11 -10 2 0 4 5 4 10 0 6 -5 10 -11 10 -5 0
-7 -4 -4 -10z"/>
<path d="M1395 978 c-16 -12 -26 -18 -22 -11 5 7 0 9 -13 6 -11 -3 -17 -9 -14
-14 3 -5 -9 -7 -26 -5 -23 3 -30 0 -26 -10 3 -8 -1 -14 -8 -14 -8 0 -16 6 -19
13 -2 6 -8 9 -12 5 -4 -4 0 -14 9 -23 24 -24 19 -41 -5 -19 -22 19 -22 19 -17
-7 4 -23 2 -27 -19 -24 -12 1 -28 -4 -35 -13 -14 -17 17 -14 147 12 22 5 46
13 53 19 10 8 16 7 23 -4 8 -12 11 -11 19 3 7 10 17 15 27 11 10 -4 14 -2 10
4 -4 6 11 15 33 22 45 13 49 22 20 51 -25 25 -46 26 -59 3 -9 -17 -11 -17 -23
0 -13 17 -15 17 -43 -5z m-65 -62 c0 -2 -7 -9 -15 -16 -12 -10 -15 -10 -15 4
0 9 7 16 15 16 8 0 15 -2 15 -4z"/>
<path d="M1490 880 c-8 -5 -23 -11 -32 -14 -10 -3 -18 -13 -18 -22 0 -8 6 -14
13 -11 6 2 11 8 10 13 -1 5 12 9 28 10 l29 1 -31 -23 c-18 -13 -51 -31 -75
-41 -49 -20 -58 -33 -18 -25 21 4 25 2 19 -9 -8 -12 -6 -12 8 -1 17 15 41 7
31 -10 -4 -6 0 -6 13 1 11 6 23 7 27 4 3 -3 6 -1 6 5 0 7 -6 12 -12 12 -9 0
-8 3 2 10 10 6 17 5 20 -4 4 -9 11 -6 27 10 13 13 18 26 13 29 -6 3 -10 1 -10
-4 0 -6 -7 -11 -15 -11 -13 0 -13 3 -3 20 7 11 19 20 26 20 9 0 8 7 -5 25 -19
26 -29 29 -53 15z"/>
<path d="M1408 843 c7 -3 16 -2 19 1 4 3 -2 6 -13 5 -11 0 -14 -3 -6 -6z"/>
<path d="M1015 734 c-5 -1 -23 -5 -40 -9 -26 -6 -28 -8 -11 -17 17 -10 156
-19 156 -11 0 24 -65 47 -105 37z"/>
<path d="M1483 730 c-23 -9 -31 -44 -14 -55 6 -3 8 3 6 14 -3 14 4 20 26 25
16 3 29 10 29 16 0 12 -17 12 -47 0z"/>
<path d="M1420 710 l-25 -8 28 -1 c15 -1 27 4 27 9 0 6 -1 10 -2 9 -2 -1 -14
-5 -28 -9z"/>
<path d="M1340 698 c0 -10 9 -9 35 2 17 8 16 8 -7 7 -16 -1 -28 -5 -28 -9z"/>
<path d="M1310 670 c-9 -6 -10 -10 -3 -10 6 0 15 5 18 10 8 12 4 12 -15 0z"/>
<path d="M1404 668 c-3 -4 6 -8 20 -8 14 0 26 4 26 8 0 4 -9 8 -21 8 -11 0
-23 -4 -25 -8z"/>
<path d="M1381 648 c-1 -21 -31 -24 -49 -6 -8 8 -12 8 -12 1 0 -14 -38 -24
-46 -12 -4 6 -10 6 -17 1 -7 -6 -21 -12 -32 -15 -18 -6 137 1 177 7 26 3 34
16 11 16 -12 0 -24 6 -26 13 -3 7 -6 5 -6 -5z"/>
<path d="M1530 651 c0 -5 -10 -8 -22 -6 -26 5 -63 -4 -54 -13 11 -10 56 -8 56
3 0 6 3 5 8 -1 5 -9 10 -8 19 2 8 8 9 15 3 19 -6 3 -10 2 -10 -4z"/>
<path d="M976 643 c-11 -11 -6 -23 9 -23 8 0 15 4 15 9 0 13 -16 22 -24 14z"/>
<path d="M1108 613 c7 -3 16 -2 19 1 4 3 -2 6 -13 5 -11 0 -14 -3 -6 -6z"/>
<path d="M1430 602 c0 -7 -4 -11 -9 -8 -10 6 -25 -24 -16 -32 3 -3 5 0 5 6 0
6 6 9 14 6 18 -7 27 8 15 26 -6 11 -9 12 -9 2z"/>
<path d="M1376 585 c-9 -26 -7 -32 5 -12 6 10 9 21 6 23 -2 3 -7 -2 -11 -11z"/>
<path d="M1296 573 c-6 -14 -5 -15 5 -6 7 7 10 15 7 18 -3 3 -9 -2 -12 -12z"/>
<path d="M1310 549 c0 -5 5 -7 10 -4 6 3 10 8 10 11 0 2 -4 4 -10 4 -5 0 -10
-5 -10 -11z"/>
<path d="M1480 550 c0 -5 5 -10 10 -10 6 0 10 5 10 10 0 6 -4 10 -10 10 -5 0
-10 -4 -10 -10z"/>
<path d="M1349 518 c-12 -22 -11 -22 7 -8 10 8 20 15 22 16 2 1 -1 5 -7 8 -5
4 -15 -4 -22 -16z"/>
<path d="M1397 525 c2 -7 13 -11 24 -8 25 7 24 10 -5 15 -16 3 -23 1 -19 -7z"/>
<path d="M1412 498 c-15 -15 -15 -28 -1 -28 5 0 8 4 4 9 -3 6 3 14 12 20 10 6
13 11 8 11 -6 0 -16 -5 -23 -12z"/>
<path d="M1490 493 c8 -3 19 -11 23 -17 6 -7 7 -6 4 4 -2 8 -12 16 -23 17 -13
2 -15 1 -4 -4z"/>
<path d="M1355 470 c3 -5 -6 -15 -21 -23 -26 -14 -26 -14 -5 -20 15 -3 24 0
28 10 3 8 13 13 24 10 21 -6 26 8 7 20 -18 11 -39 13 -33 3z"/>
<path d="M1440 470 c0 -5 5 -10 11 -10 5 0 7 5 4 10 -3 6 -8 10 -11 10 -2 0
-4 -4 -4 -10z"/>
<path d="M1235 440 c3 -5 12 -7 20 -3 21 7 19 13 -6 13 -11 0 -18 -4 -14 -10z"/>
<path d="M1195 430 c-3 -6 1 -7 9 -4 18 7 21 14 7 14 -6 0 -13 -4 -16 -10z"/>
<path d="M1450 415 c0 -8 2 -15 4 -15 2 0 6 7 10 15 3 8 1 15 -4 15 -6 0 -10
-7 -10 -15z"/>
<path d="M1486 393 c9 -79 17 -86 55 -52 13 11 18 18 12 14 -8 -4 -13 1 -13
14 0 11 -5 23 -12 27 -7 4 -8 3 -4 -4 4 -7 1 -12 -8 -12 -9 0 -16 7 -16 15 0
8 5 15 11 15 5 0 7 5 4 10 -3 6 -12 10 -20 10 -10 0 -12 -10 -9 -37z m44 -38
c0 -8 -4 -15 -10 -15 -5 0 -10 7 -10 15 0 8 5 15 10 15 6 0 10 -7 10 -15z"/>
<path d="M1346 402 c-3 -5 8 -6 25 -4 16 2 29 6 29 8 0 8 -49 4 -54 -4z"/>
<path d="M1415 392 c-44 -7 -47 -11 -30 -28 15 -15 14 -18 -6 -40 -11 -12 -27
-20 -35 -17 -8 3 -14 0 -14 -6 0 -21 47 -12 59 12 6 12 9 14 7 5 -6 -21 19
-25 27 -5 4 10 6 10 6 0 1 -16 31 -17 31 -2 0 5 -4 7 -10 4 -5 -3 -10 -1 -10
4 0 6 10 11 23 12 21 0 21 1 2 8 -11 5 -28 5 -37 0 -23 -12 -24 -12 -24 10 0
11 3 18 7 15 4 -2 19 2 33 10 22 11 24 14 9 18 -10 2 -27 2 -38 0z"/>
<path d="M1240 380 c0 -5 5 -10 10 -10 6 0 10 5 10 10 0 6 -4 10 -10 10 -5 0
-10 -4 -10 -10z"/>
<path d="M1295 380 c-16 -7 -17 -9 -3 -9 9 -1 20 4 23 9 7 11 7 11 -20 0z"/>
<path d="M1220 340 c0 -12 28 -25 36 -17 3 3 -4 10 -15 17 -15 7 -21 7 -21 0z"/>
<path d="M1305 330 c3 -5 8 -10 11 -10 2 0 4 5 4 10 0 6 -5 10 -11 10 -5 0 -7
-4 -4 -10z"/>
<path d="M1346 327 c3 -10 9 -15 12 -12 3 3 0 11 -7 18 -10 9 -11 8 -5 -6z"/>
<path d="M1295 300 c-3 -5 -1 -10 4 -10 6 0 11 5 11 10 0 6 -2 10 -4 10 -3 0
-8 -4 -11 -10z"/>
<path d="M1240 290 c0 -5 4 -10 9 -10 6 0 13 5 16 10 3 6 -1 10 -9 10 -9 0
-16 -4 -16 -10z"/>
<path d="M1178 283 c6 -2 18 -2 25 0 6 3 1 5 -13 5 -14 0 -19 -2 -12 -5z"/>
</g>
</svg>
